<?xml version="1.0" standalone="no"?>
<!DOCTYPE svg PUBLIC "-//W3C//DTD SVG 20010904//EN"
 "http://www.w3.org/TR/2001/REC-SVG-20010904/DTD/svg10.dtd">
<svg version="1.0" xmlns="http://www.w3.org/2000/svg"
 width="344.000000pt" height="344.000000pt" viewBox="0 0 344.000000 344.000000"
 preserveAspectRatio="xMidYMid meet">
<metadata>
Created by potrace 1.14, written by Peter Selinger 2001-2017
</metadata>
<g transform="translate(0.000000,344.000000) scale(0.100000,-0.100000)"
fill="#000000" stroke="none">
<path d="M622 2439 c-307 -45 -561 -299 -611 -610 -6 -36 -11 -232 -11 -457
l0 -393 1418 4 c1547 3 1430 -2 1578 59 295 121 484 460 435 778 -27 170 -85
284 -212 411 -71 72 -101 94 -180 133 -177 87 -78 80 -1284 82 -608 1 -1097
-2 -1133 -7z m68 -599 c6 -198 12 -216 81 -247 l39 -17 0 -89 0 -89 -42 7
c-103 16 -198 88 -241 184 -19 40 -22 69 -25 224 -2 98 -1 184 2 193 5 12 22
14 93 12 l88 -3 5 -175z m2210 -31 l0 -211 -32 7 c-74 16 -129 66 -148 133 -5
20 -10 92 -10 160 l0 122 95 0 95 0 0 -211z m-1687 185 c68 -23 138 -91 172
-165 24 -55 27 -71 23 -139 -6 -97 -42 -167 -114 -223 -206 -158 -494 -15
-494 246 0 117 87 243 193 281 56 19 163 20 220 0z m662 -12 c64 -31 111 -77
147 -145 22 -40 23 -53 23 -262 l0 -220 -30 -54 c-90 -164 -309 -210 -457 -98
-38 29 -97 101 -98 119 0 10 111 88 125 88 6 0 33 -21 59 -46 46 -46 47 -46
103 -42 49 4 61 10 90 41 39 43 43 63 11 52 -13 -4 -52 -9 -88 -12 -172 -13
-320 125 -320 297 0 97 23 155 89 221 67 66 118 87 216 88 57 1 81 -4 130 -27z
m643 -2 c101 -51 159 -136 169 -250 20 -217 -206 -387 -412 -309 -207 78 -266
350 -109 503 67 65 115 84 220 85 60 1 80 -4 132 -29z m337 -404 c89 -37 83
-175 -9 -206 -74 -24 -146 27 -146 102 0 50 13 74 53 98 38 24 57 25 102 6z"/>
<path d="M1051 1823 c-48 -25 -74 -64 -74 -110 0 -79 52 -133 128 -133 75 0
128 52 128 126 0 97 -99 160 -182 117z"/>
<path d="M1694 1826 c-17 -8 -40 -26 -52 -41 -66 -84 -7 -205 101 -205 84 0
133 56 125 142 -6 54 -27 84 -75 104 -40 17 -59 17 -99 0z"/>
<path d="M2340 1829 c-40 -16 -79 -60 -86 -95 -8 -42 10 -95 41 -124 33 -31
107 -39 150 -16 90 49 84 192 -10 232 -39 16 -60 17 -95 3z"/>
</g>
</svg>
